# xmcd
#
# Track frame offsets:
# 150
# 17697
# 38467
# 56330
# 79712
# 98517
# 112505
# 135090
# 153385
# 174997
# 199627
#
# Disc length: 3082 seconds
#
#
# Revision: 0
# Processed by: cddbd v1.5.2PL0 Copyright (c) Steve Scherf et al.
# Submitted via: Nero 7, 10, 1, 0 
#
DISCID=670c080b
DTITLE=Erica Brown Band - Body Work
DYEAR=2007
DGENRE=Blues
TTITLE0=Honey Hush
TTITLE1=Dynamite
TTITLE2=Never Found a Man
TTITLE3=The Weight
TTITLE4=Ace In the Hole
TTITLE5=Matchbox
TTITLE6=Love and Happiness
TTITLE7=Bodywork
TTITLE8=Last Two Dollars
TTITLE9=Crying and Trying
TTITLE10=Nothing Takes the Place of You
EXTD=
EXTT0=Honey Hush
EXTT1=Dynamite
EXTT2=Never Found a Man
EXTT3=The Weight
EXTT4=Ace In the Hole
EXTT5=Matchbox
EXTT6=Love and Happiness
EXTT7=Bodywork
EXTT8=Last Two Dollars
EXTT9=Crying and Trying
EXTT10=Nothing Takes the Place of You
PLAYORDER=
